<svg width="60" height="60" viewBox="0 0 60 60" fill="none" xmlns="http://www.w3.org/2000/svg">
<path d="M24.8284 30L37.4142 17.4142C38.1953 16.6332 38.1953 15.3668 37.4142 14.5858C36.6332 13.8047 35.3668 13.8047 34.5858 14.5858L20.5858 28.5858C19.8047 29.3668 19.8047 30.6332 20.5858 31.4142L34.5858 45.4142C35.3668 46.1953 36.6332 46.1953 37.4142 45.4142C38.1953 44.6332 38.1953 43.3668 37.4142 42.5858L24.8284 30Z" fill="#1A3B70"/>
<mask id="mask0" x="20" y="14" width="18" height="32">
<path d="M24.8284 30L37.4142 17.4142C38.1953 16.6332 38.1953 15.3668 37.4142 14.5858C36.6332 13.8047 35.3668 13.8047 34.5858 14.5858L20.5858 28.5858C19.8047 29.3668 19.8047 30.6332 20.5858 31.4142L34.5858 45.4142C35.3668 46.1953 36.6332 46.1953 37.4142 45.4142C38.1953 44.6332 38.1953 43.3668 37.4142 42.5858L24.8284 30Z" fill="white"/>
</mask>
<g mask="url(#mask0)">
<path d="M60 0H0V60H60V0Z" fill="#1A3B70"/>
</g>
</svg>
